<svg width="44" height="44" viewBox="0 0 44 44" fill="none" xmlns="http://www.w3.org/2000/svg">
<path d="M3.99979 19.1748C5.67122 19.1748 7.32628 19.504 8.87049 20.1436C10.4147 20.7833 11.8178 21.7208 12.9997 22.9027C14.1815 24.0846 15.1191 25.4877 15.7587 27.0319C16.3983 28.5761 16.7275 30.2311 16.7275 31.9026L11.0536 31.9026C11.0536 30.9762 10.8711 30.059 10.5167 29.2032C10.1622 28.3474 9.64259 27.5698 8.98759 26.9148C8.33258 26.2598 7.55497 25.7402 6.69916 25.3857C5.84336 25.0312 4.92611 24.8487 3.99979 24.8487V19.1748Z" fill="#1A1C1A"/>
<path d="M3.26398 26.0381C5.24475 26.0381 7.20612 25.6479 9.03611 24.8899C10.8661 24.1319 12.5289 23.0209 13.9295 21.6203C15.3301 20.2197 16.4411 18.5569 17.1991 16.7269C17.9571 14.8969 18.3473 12.9355 18.3473 10.9548L11.6233 10.9548C11.6233 12.0525 11.407 13.1395 10.9869 14.1537C10.5669 15.1679 9.95112 16.0894 9.17488 16.8657C8.39865 17.6419 7.47713 18.2577 6.46294 18.6777C5.44874 19.0978 4.36173 19.3141 3.26398 19.3141V26.0381Z" fill="#F3F3F3"/>
<path d="M3.99979 24.8257C5.67122 24.8257 7.32628 24.4965 8.87049 23.8568C10.4147 23.2172 11.8178 22.2797 12.9997 21.0978C14.1815 19.9159 15.1191 18.5128 15.7587 16.9686C16.3983 15.4244 16.7275 13.7694 16.7275 12.0979L11.0536 12.0979C11.0536 13.0242 10.8711 13.9415 10.5167 14.7973C10.1622 15.6531 9.64259 16.4307 8.98759 17.0857C8.33258 17.7407 7.55497 18.2603 6.69916 18.6148C5.84336 18.9693 4.92611 19.1517 3.99979 19.1517V24.8257Z" fill="#1A1C1A"/>
<path d="M23.9015 12.0933L11.9452 31.9065H17.6387L29.5496 12.0933H23.9015Z" fill="#F3F3F3"/>
<path d="M25.2678 12.0933L13.3115 31.9065H19.005L30.9159 12.0933H25.2678Z" fill="#54585A"/>
<path d="M40.2277 26.2485C38.3619 26.2485 36.5144 25.881 34.7906 25.167C33.0668 24.453 31.5006 23.4065 30.1813 22.0872C28.8619 20.7678 27.8154 19.2016 27.1014 17.4778C26.3874 15.7541 26.0199 13.9065 26.0199 12.0407L32.3536 12.0407C32.3536 13.0748 32.5573 14.0987 32.953 15.054C33.3487 16.0093 33.9287 16.8774 34.6599 17.6085C35.3911 18.3397 36.2591 18.9197 37.2144 19.3154C38.1698 19.7111 39.1937 19.9148 40.2277 19.9148V26.2485Z" fill="#F3F3F3"/>
<path d="M40.0001 24.8257C38.3287 24.8257 36.6736 24.4965 35.1294 23.8568C33.5852 23.2172 32.1821 22.2797 31.0002 21.0978C29.8183 19.9159 28.8808 18.5128 28.2412 16.9686C27.6016 15.4244 27.2723 13.7694 27.2723 12.0979L32.9463 12.0979C32.9463 13.0242 33.1287 13.9415 33.4832 14.7973C33.8377 15.6531 34.3573 16.4307 35.0123 17.0857C35.6673 17.7407 36.4449 18.2603 37.3007 18.6148C38.1565 18.9693 39.0738 19.1517 40.0001 19.1517V24.8257Z" fill="#1A1C1A"/>
<path d="M39.3169 18.1538C37.6454 18.1538 35.9904 18.483 34.4462 19.1227C32.902 19.7623 31.4989 20.6998 30.317 21.8817C29.1351 23.0636 28.1976 24.4667 27.558 26.0109C26.9183 27.5551 26.5891 29.2101 26.5891 30.8816L32.263 30.8816C32.263 29.9552 32.4455 29.038 32.8 28.1822C33.1545 27.3264 33.6741 26.5488 34.3291 25.8938C34.9841 25.2388 35.7617 24.7192 36.6175 24.3647C37.4733 24.0102 38.3905 23.8277 39.3169 23.8277V18.1538Z" fill="#F3F3F3"/>
<path d="M40.0001 19.1748C38.3287 19.1748 36.6736 19.504 35.1294 20.1436C33.5852 20.7833 32.1821 21.7208 31.0002 22.9027C29.8183 24.0846 28.8808 25.4877 28.2412 27.0319C27.6016 28.5761 27.2723 30.2311 27.2723 31.9026L32.9463 31.9026C32.9463 30.9762 33.1287 30.059 33.4832 29.2032C33.8377 28.3474 34.3573 27.5698 35.0123 26.9148C35.6673 26.2598 36.4449 25.7402 37.3007 25.3857C38.1565 25.0312 39.0738 24.8487 40.0001 24.8487V19.1748Z" fill="#1A1C1A"/>
</svg>
