<svg width="512" height="512" viewBox="0 0 512 512" fill="none" xmlns="http://www.w3.org/2000/svg">
<path d="M375.419 147.969C375.419 158.074 377.408 168.083 381.276 177.419C385.143 186.755 390.813 195.237 397.959 202.383C403.771 208.196 410.467 213.032 417.789 216.715C408.904 218.485 400.192 221.127 391.781 224.61C378.434 230.139 366.052 237.708 355.072 247.027C354.776 246.737 354.481 246.446 354.189 246.153C341.295 233.26 331.066 217.953 324.088 201.107C317.11 184.26 313.519 166.203 313.519 147.969H375.419Z" fill="#1A1C1A"/>
<path d="M452.373 225.189C434.138 225.189 416.082 228.781 399.236 235.759C382.389 242.737 367.082 252.965 354.188 265.858C341.295 278.752 331.067 294.059 324.089 310.906C317.111 327.752 313.519 345.808 313.519 364.043L375.419 364.043C375.419 353.937 377.41 343.93 381.277 334.594C385.144 325.257 390.812 316.774 397.958 309.628C405.104 302.482 413.587 296.814 422.924 292.947C432.26 289.079 442.267 287.089 452.373 287.089V225.189Z" fill="#1A1C1A"/>
<path d="M59.6325 286.835C77.867 286.835 95.923 283.243 112.77 276.265C129.616 269.287 144.923 259.059 157.817 246.166C170.711 233.272 180.939 217.965 187.917 201.118C194.895 184.272 198.486 166.216 198.486 147.981L136.586 147.981C136.586 158.087 134.596 168.094 130.729 177.43C126.861 186.767 121.193 195.25 114.047 202.396C106.901 209.542 98.4179 215.21 89.0814 219.077C79.745 222.944 69.7382 224.935 59.6325 224.935V286.835Z" fill="#1A1C1A"/>
<path d="M155.296 263.163C156.235 264.051 157.163 264.953 158.079 265.868C168.643 276.433 177.415 288.621 184.079 301.945L146.6 364.053H136.849C136.849 353.948 134.858 343.941 130.992 334.605C127.124 325.269 121.454 316.784 114.308 309.639C108.08 303.41 100.835 298.304 92.894 294.535C100.355 292.614 107.69 290.172 114.84 287.21C129.436 281.164 143.055 273.056 155.296 263.163Z" fill="#1A1C1A"/>
<path d="M300.133 148.173C300.208 168.333 304.211 188.287 311.928 206.916C312.772 208.954 313.661 210.971 314.589 212.967L223.601 364.327H161.488L291.925 148.173H300.133Z" fill="#707372"/>
</svg>
